<svg xmlns="http://www.w3.org/2000/svg" xmlns:xlink="http://www.w3.org/1999/xlink" width="500" zoomAndPan="magnify" viewBox="0 0 375 374.999991" height="500" preserveAspectRatio="xMidYMid meet" version="1.0"><defs><clipPath id="c6fe5a84b2"><path d="M 99.445312 213.703125 L 110.023438 213.703125 L 110.023438 232.835938 L 99.445312 232.835938 Z M 99.445312 213.703125 " clip-rule="nonzero"/></clipPath><clipPath id="9c3ba7eb60"><path d="M 108.625 222.699219 C 102.847656 219.808594 102.320312 218.847656 102.144531 217.882812 C 101.972656 217.007812 101.882812 215.609375 102.410156 214.996094 C 102.933594 214.296875 104.421875 213.859375 105.296875 213.769531 C 106.085938 213.769531 106.960938 213.769531 107.484375 214.46875 C 108.449219 215.609375 108.625 219.722656 108.273438 222.261719 C 107.921875 224.800781 106.609375 227.863281 105.382812 229.699219 C 104.507812 231.015625 103.285156 232.152344 102.234375 232.503906 C 101.445312 232.851562 100.394531 232.941406 99.871094 232.503906 C 99.257812 231.890625 99.433594 229.964844 99.78125 228.300781 C 100.308594 225.761719 102.496094 221.210938 104.335938 218.847656 C 105.734375 216.921875 107.921875 214.46875 108.972656 214.558594 C 109.410156 214.558594 109.847656 215.171875 109.9375 215.609375 C 110.113281 216.046875 109.9375 216.746094 109.761719 217.269531 C 109.5 217.882812 109.234375 218.496094 108.710938 219.023438 C 108.097656 219.722656 106.871094 220.683594 105.910156 220.683594 C 104.859375 220.773438 103.109375 219.808594 102.671875 219.109375 C 102.410156 218.671875 102.496094 217.796875 102.671875 217.359375 C 102.847656 217.097656 103.285156 216.832031 103.457031 216.921875 C 103.808594 217.097656 104.070312 219.371094 103.808594 219.546875 C 103.632812 219.722656 102.496094 219.023438 102.410156 218.585938 C 102.320312 218.148438 102.757812 217.183594 103.195312 217.007812 C 103.722656 216.921875 104.683594 218.234375 105.382812 218.148438 C 106.171875 218.148438 107.046875 216.570312 107.660156 216.484375 C 108.1875 216.484375 108.886719 216.660156 108.972656 217.007812 C 109.234375 217.882812 106.347656 220.421875 105.210938 222.523438 C 103.898438 224.972656 102.933594 230.3125 101.796875 230.839844 C 101.359375 231.101562 100.570312 230.75 100.484375 230.578125 C 100.394531 230.140625 102.410156 229.261719 103.195312 228.300781 C 104.070312 227.164062 104.773438 225.675781 105.210938 224.011719 C 105.824219 221.910156 106.609375 217.359375 105.996094 216.394531 C 105.648438 216.046875 104.773438 215.871094 104.597656 216.046875 C 104.421875 216.308594 105.296875 218.320312 105.996094 218.933594 C 106.699219 219.632812 108.449219 219.460938 108.886719 220.074219 C 109.234375 220.683594 108.625 222.699219 108.625 222.699219 " clip-rule="nonzero"/></clipPath><clipPath id="586673dbbc"><path d="M 99.375 214 L 111.429688 214 L 111.429688 226.34375 L 99.375 226.34375 Z M 99.375 214 " clip-rule="nonzero"/></clipPath><clipPath id="58b52eba72"><path d="M 111.425781 218.320312 C 111.425781 222.171875 110.988281 223.222656 110.375 223.921875 C 109.761719 224.710938 108.972656 225.324219 108.097656 225.761719 C 107.222656 226.113281 106.171875 226.375 105.210938 226.289062 C 104.246094 226.199219 103.195312 225.9375 102.410156 225.410156 C 101.621094 224.886719 100.832031 224.1875 100.308594 223.3125 C 99.78125 222.523438 99.519531 221.472656 99.433594 220.511719 C 99.34375 219.546875 99.609375 218.496094 99.957031 217.621094 C 100.394531 216.746094 101.007812 215.957031 101.796875 215.34375 C 102.496094 214.734375 103.546875 214.296875 104.421875 214.121094 C 105.382812 213.945312 106.433594 214.03125 107.398438 214.296875 C 108.273438 214.558594 109.9375 215.871094 109.9375 215.871094 " clip-rule="nonzero"/></clipPath><clipPath id="becbf0d46a"><path d="M 94.121094 208.277344 L 116.8125 208.277344 L 116.8125 229.5625 L 94.121094 229.5625 Z M 94.121094 208.277344 " clip-rule="nonzero"/></clipPath><clipPath id="661a21da34"><path d="M 98.90625 218.234375 C 100.046875 215.171875 102.058594 211.667969 104.070312 211.054688 C 106.261719 210.355469 110.636719 211.496094 112.210938 213.15625 C 113.699219 214.734375 114.050781 218.234375 113.613281 220.683594 C 113.085938 223.3125 110.988281 226.898438 108.796875 228.300781 C 106.785156 229.527344 103.285156 229.875 101.269531 229 C 99.257812 228.300781 96.980469 225.761719 96.71875 223.75 C 96.367188 221.734375 97.769531 218.058594 99.433594 216.832031 C 101.007812 215.695312 104.421875 215.609375 106.261719 216.394531 C 108.011719 217.183594 110.285156 219.722656 110.375 221.558594 C 110.550781 223.484375 108.625 226.8125 106.785156 227.773438 C 104.945312 228.824219 101.09375 228.476562 99.082031 227.511719 C 97.15625 226.636719 95.582031 224.625 94.792969 222.699219 C 94.003906 220.597656 93.917969 217.359375 94.707031 215.257812 C 95.40625 213.332031 97.070312 211.320312 98.90625 210.445312 C 101.007812 209.570312 104.859375 209.65625 106.960938 210.617188 C 108.972656 211.496094 111.160156 213.683594 111.597656 215.519531 C 111.949219 217.359375 110.988281 220.246094 109.410156 221.558594 C 107.574219 223.046875 102.582031 224.011719 100.570312 223.046875 C 98.90625 222.261719 97.683594 219.632812 97.59375 217.710938 C 97.507812 215.609375 99.082031 212.457031 100.746094 210.96875 C 102.144531 209.65625 104.597656 209.042969 106.523438 208.957031 C 108.449219 208.867188 110.8125 209.394531 112.476562 210.617188 C 114.3125 211.84375 116.328125 214.46875 116.675781 216.570312 C 117.027344 218.496094 116.5 221.386719 115.011719 222.785156 C 113 224.449219 106.609375 225.324219 104.335938 224.097656 C 102.582031 223.136719 101.796875 219.984375 101.445312 218.058594 C 101.183594 216.394531 101.535156 214.820312 102.058594 213.332031 C 102.582031 212.019531 103.371094 210.445312 104.335938 209.65625 C 105.121094 208.957031 106.085938 208.605469 106.960938 208.429688 C 107.921875 208.253906 108.972656 208.34375 109.9375 208.605469 C 110.8125 208.867188 111.773438 209.394531 112.386719 210.09375 C 113.261719 211.054688 114.402344 213.945312 114.226562 214.121094 C 113.964844 214.207031 110.722656 208.253906 109.585938 208.519531 C 108.011719 208.867188 108.1875 220.074219 106.609375 220.421875 C 105.382812 220.683594 102.410156 216.484375 101.972656 214.820312 C 101.707031 213.769531 102.144531 212.808594 102.496094 211.933594 C 102.933594 211.054688 103.546875 210.269531 104.335938 209.65625 C 105.035156 209.042969 105.996094 208.605469 106.960938 208.429688 C 108.1875 208.253906 110.199219 208.605469 111.25 209.21875 C 112.210938 209.742188 112.824219 210.445312 113.351562 211.320312 C 113.789062 212.105469 114.3125 213.15625 114.226562 214.121094 C 114.050781 215.171875 113.351562 216.394531 112.300781 217.445312 C 110.8125 218.757812 105.734375 221.121094 105.472656 220.859375 C 105.296875 220.511719 109.847656 217.710938 109.671875 216.394531 C 109.585938 214.90625 105.734375 212.105469 104.070312 212.28125 C 102.320312 212.457031 99.082031 216.570312 99.519531 217.445312 C 99.871094 218.234375 105.734375 217.183594 105.734375 217.359375 C 105.734375 217.621094 100.570312 217.445312 99.519531 218.757812 C 98.46875 220.074219 98.46875 224.535156 99.609375 225.238281 C 101.269531 226.199219 110.375 218.671875 111.25 219.285156 C 111.597656 219.460938 111.511719 220.597656 110.988281 220.859375 C 109.761719 221.734375 98.90625 218.234375 98.90625 218.234375 " clip-rule="nonzero"/></clipPath><clipPath id="cf208a14fc"><path d="M 92.027344 129.398438 L 114.574219 129.398438 L 114.574219 153.539062 L 92.027344 153.539062 Z M 92.027344 129.398438 " clip-rule="nonzero"/></clipPath><clipPath id="409c50417e"><path d="M 92.34375 137.878906 C 97.507812 131.75 98.292969 132.363281 98.730469 132.101562 C 99.082031 131.839844 98.90625 131.050781 99.34375 130.703125 C 100.65625 129.824219 105.648438 128.949219 108.011719 129.824219 C 110.113281 130.613281 112.210938 133.152344 113.085938 135.078125 C 113.875 136.742188 113.4375 139.804688 113.613281 140.417969 C 113.699219 140.59375 113.789062 140.59375 113.789062 140.679688 C 113.789062 140.855469 113.699219 140.941406 113.699219 141.03125 C 113.699219 141.117188 113.699219 141.207031 113.699219 141.292969 C 113.699219 141.378906 113.613281 141.378906 113.613281 141.46875 C 113.4375 141.730469 112.914062 142.957031 113.085938 143.480469 C 113.261719 143.917969 114.488281 144.355469 114.488281 144.445312 C 114.488281 144.445312 114.402344 144.445312 114.402344 144.445312 C 114.226562 144.445312 113.175781 144.355469 112.824219 144.707031 C 112.210938 145.230469 112.5625 147.332031 111.949219 148.121094 C 111.425781 148.734375 109.847656 148.90625 109.671875 149.171875 C 109.585938 149.347656 109.671875 149.433594 109.585938 149.519531 C 109.234375 150.222656 106.171875 153.109375 104.070312 153.371094 C 101.882812 153.722656 98.644531 152.320312 96.71875 150.746094 C 94.707031 149.257812 93.042969 146.71875 92.34375 144.445312 C 91.730469 142.34375 92.34375 137.878906 92.34375 137.878906 " clip-rule="nonzero"/></clipPath><clipPath id="943cbcac40"><path d="M 128.820312 87 L 151.976562 87 L 151.976562 110.972656 L 128.820312 110.972656 Z M 128.820312 87 " clip-rule="nonzero"/></clipPath><clipPath id="1a6f926669"><path d="M 128.929688 100.765625 C 129.195312 99.539062 129.195312 99.539062 129.195312 99.539062 C 129.195312 99.539062 129.195312 99.539062 129.28125 99.539062 C 129.28125 99.277344 129.980469 97.089844 130.070312 96.125 C 130.070312 95.335938 129.804688 94.898438 129.894531 93.9375 C 130.15625 92.363281 132.082031 87.460938 132.082031 87.371094 C 132.082031 87.371094 132.609375 87.285156 132.78125 87.285156 C 133.046875 87.195312 133.570312 87.109375 133.570312 87.109375 C 133.570312 87.109375 134.007812 87.109375 134.269531 87.109375 C 134.53125 87.109375 135.058594 87.195312 135.058594 87.195312 C 135.058594 87.195312 135.496094 87.285156 135.757812 87.371094 C 135.933594 87.460938 136.371094 87.546875 136.371094 87.546875 C 136.371094 87.546875 136.457031 87.546875 136.457031 87.546875 C 136.457031 87.546875 136.898438 87.808594 137.070312 87.898438 C 137.246094 87.984375 137.246094 88.160156 137.507812 88.160156 C 138.035156 88.246094 139.523438 87.285156 140.835938 87.371094 C 143.023438 87.546875 146.960938 88.859375 148.886719 90.523438 C 150.464844 91.925781 151.601562 94.199219 151.863281 96.214844 C 152.128906 98.3125 151.253906 100.851562 150.375 102.867188 C 149.328125 104.964844 147.574219 107.765625 146.085938 108.644531 C 145.125 109.167969 143.550781 108.90625 143.199219 109.082031 C 143.113281 109.082031 143.199219 109.167969 143.113281 109.167969 C 142.585938 109.429688 137.246094 111.355469 134.972656 110.742188 C 132.78125 110.21875 130.242188 108.03125 129.28125 106.28125 C 128.582031 104.703125 129.542969 101.640625 129.28125 101.027344 C 129.195312 100.851562 128.929688 100.765625 128.929688 100.765625 " clip-rule="nonzero"/></clipPath><clipPath id="6a588932fb"><path d="M 224.792969 82.308594 L 249.765625 82.308594 L 249.765625 108.628906 L 224.792969 108.628906 Z M 224.792969 82.308594 " clip-rule="nonzero"/></clipPath><clipPath id="91397c08a0"><path d="M 224.867188 92.535156 C 228.367188 83.695312 231.167969 82.558594 233.53125 82.382812 C 235.984375 82.121094 239.746094 83.519531 241.410156 84.394531 C 242.375 84.921875 242.636719 85.796875 243.25 86.058594 C 243.863281 86.234375 244.300781 85.710938 244.914062 85.972656 C 246.136719 86.496094 248.414062 88.683594 249.113281 90.609375 C 249.988281 92.710938 249.902344 96.824219 249.203125 98.226562 C 248.851562 99.015625 247.886719 99.015625 247.449219 99.628906 C 246.925781 100.328125 247.1875 101.816406 246.574219 102.339844 C 245.960938 102.867188 244.125 102.429688 243.425781 102.691406 C 243.074219 102.777344 243.074219 103.128906 242.722656 103.214844 C 242.199219 103.390625 240.449219 103.039062 240.097656 103.304688 C 239.921875 103.476562 240.011719 103.917969 240.011719 104.003906 C 240.011719 104.003906 239.835938 104.441406 239.746094 104.617188 C 239.660156 104.878906 239.484375 105.316406 239.484375 105.316406 C 239.484375 105.316406 239.222656 105.753906 239.136719 105.929688 C 238.960938 106.191406 238.699219 106.542969 238.699219 106.542969 C 238.699219 106.542969 238.257812 106.890625 238.085938 107.066406 C 237.910156 107.242188 237.558594 107.503906 237.558594 107.503906 C 237.558594 107.503906 237.121094 107.765625 236.945312 107.855469 C 236.683594 107.941406 236.246094 108.207031 236.246094 108.207031 C 236.246094 108.207031 235.808594 108.292969 235.546875 108.378906 C 235.285156 108.46875 234.847656 108.554688 234.847656 108.554688 C 234.847656 108.554688 234.320312 108.554688 234.058594 108.554688 C 233.796875 108.554688 233.359375 108.554688 233.359375 108.554688 C 233.359375 108.554688 232.832031 108.46875 232.65625 108.378906 C 232.394531 108.292969 231.871094 108.207031 231.871094 108.207031 C 231.871094 108.207031 231.433594 107.941406 231.257812 107.855469 C 230.996094 107.765625 230.644531 107.503906 230.558594 107.503906 C 230.558594 107.503906 230.207031 107.15625 230.03125 106.980469 C 229.855469 106.804688 229.507812 106.542969 229.507812 106.542969 C 229.507812 106.542969 229.242188 106.105469 229.070312 105.929688 C 228.980469 105.667969 228.632812 105.316406 228.632812 105.316406 C 228.632812 105.316406 228.457031 104.792969 228.367188 104.617188 C 228.28125 104.355469 228.195312 103.917969 228.105469 103.917969 C 228.105469 103.917969 228.105469 103.390625 228.019531 103.214844 C 228.019531 102.953125 228.019531 102.429688 228.019531 102.429688 C 228.019531 102.429688 228.457031 101.992188 228.457031 101.726562 C 228.367188 101.203125 226.878906 100.503906 226.707031 99.976562 C 226.617188 99.539062 226.96875 98.839844 226.878906 98.664062 C 226.878906 98.578125 226.792969 98.488281 226.707031 98.488281 C 226.707031 98.3125 226.707031 98.226562 226.617188 98.140625 C 226.53125 97.964844 226.269531 97.875 226.179688 97.789062 C 226.179688 97.613281 226.355469 97.351562 226.269531 97 C 226.179688 96.125 224.867188 92.535156 224.867188 92.535156 " clip-rule="nonzero"/></clipPath><clipPath id="861deb7efd"><path d="M 222.835938 90.242188 L 250.449219 90.242188 L 250.449219 112.652344 L 222.835938 112.652344 Z M 222.835938 90.242188 " clip-rule="nonzero"/></clipPath><clipPath id="1f825bea85"><path d="M 222.941406 100.589844 C 224.605469 93.5 225.390625 93.675781 225.742188 93.324219 C 225.917969 93.148438 225.832031 92.710938 226.003906 92.535156 C 226.269531 92.273438 226.878906 92.363281 227.230469 92.097656 C 227.753906 91.835938 227.929688 91.046875 228.542969 90.785156 C 229.332031 90.347656 231.34375 90.785156 232.21875 90.609375 C 232.65625 90.523438 232.921875 90.261719 233.183594 90.347656 C 233.359375 90.347656 233.359375 90.523438 233.621094 90.609375 C 233.96875 90.699219 234.671875 90.347656 235.109375 90.523438 C 235.632812 90.699219 235.722656 91.574219 236.335938 91.75 C 237.296875 92.011719 239.660156 90.4375 240.625 90.699219 C 241.324219 90.960938 241.410156 92.011719 241.9375 92.363281 C 242.550781 92.710938 243.511719 93.0625 244.300781 92.972656 C 245 92.886719 245.699219 91.835938 246.3125 91.925781 C 246.925781 92.097656 247.625 93.851562 247.800781 93.9375 C 247.800781 93.9375 247.800781 93.9375 247.800781 94.023438 C 247.976562 94.289062 250.164062 96.039062 250.339844 97.351562 C 250.601562 99.101562 248.765625 102.953125 247.976562 103.742188 C 247.714844 104.089844 247.1875 104.003906 247.101562 104.179688 C 247.011719 104.265625 247.011719 104.265625 247.011719 104.355469 C 246.925781 104.527344 246.75 105.054688 246.75 105.054688 C 246.75 105.054688 246.488281 105.402344 246.3125 105.667969 C 246.136719 105.84375 245.875 106.191406 245.875 106.191406 C 245.875 106.191406 245.261719 105.316406 245 105.316406 C 244.738281 105.316406 244.648438 105.667969 244.300781 106.105469 C 243.511719 107.066406 241.9375 110.394531 239.921875 111.445312 C 237.734375 112.582031 233.445312 112.933594 231.519531 112.230469 C 230.207031 111.707031 229.855469 110.304688 228.804688 109.429688 C 227.582031 108.46875 225.566406 107.941406 224.605469 106.628906 C 223.554688 105.140625 222.941406 100.589844 222.941406 100.589844 " clip-rule="nonzero"/></clipPath><clipPath id="d180dc8486"><path d="M 257.773438 122.730469 L 283.234375 122.730469 L 283.234375 154.804688 L 257.773438 154.804688 Z M 257.773438 122.730469 " clip-rule="nonzero"/></clipPath><clipPath id="fbea6f8134"><path d="M 257.78125 133.328125 C 261.019531 127.636719 261.28125 127.8125 261.367188 127.726562 C 261.457031 127.726562 261.367188 127.636719 261.457031 127.550781 C 261.804688 127.023438 267.320312 122.734375 268.722656 122.734375 C 269.246094 122.734375 269.597656 123.4375 269.945312 123.523438 C 270.121094 123.523438 270.210938 123.261719 270.382812 123.347656 C 270.996094 123.4375 273.710938 125.800781 274.234375 126.0625 C 274.324219 126.148438 274.410156 126.238281 274.410156 126.238281 C 274.5 126.324219 274.847656 126.761719 275.199219 126.851562 C 275.546875 126.9375 276.160156 126.324219 276.597656 126.585938 C 277.472656 127.113281 278.261719 131.140625 279.050781 132.277344 C 279.488281 132.890625 279.839844 132.890625 280.1875 133.503906 C 280.976562 134.726562 282.203125 137.703125 282.640625 140.066406 C 283.078125 142.605469 283.425781 145.933594 282.726562 148.296875 C 282.203125 150.308594 281.0625 152.496094 279.488281 153.546875 C 277.914062 154.683594 275.023438 155.035156 273.097656 154.597656 C 271.085938 154.074219 269.070312 151.097656 267.671875 150.832031 C 266.96875 150.660156 266.53125 151.359375 265.921875 151.183594 C 264.605469 150.832031 262.59375 148.46875 261.367188 146.632812 C 260.144531 144.707031 259.269531 142.167969 258.65625 139.890625 C 258.042969 137.703125 257.78125 133.328125 257.78125 133.328125 M 273.972656 151.882812 C 273.972656 151.972656 273.972656 151.882812 273.972656 151.882812 " clip-rule="nonzero"/></clipPath><clipPath id="9279c4b6e5"><path d="M 259.167969 206.144531 L 279.585938 206.144531 L 279.585938 232.195312 L 259.167969 232.195312 Z M 259.167969 206.144531 " clip-rule="nonzero"/></clipPath><clipPath id="37ade63ffe"><path d="M 259.269531 217.796875 C 260.144531 215.785156 260.054688 215.695312 260.144531 215.519531 C 260.144531 215.34375 260.144531 214.820312 260.144531 214.820312 C 260.144531 214.820312 260.230469 214.734375 260.230469 214.644531 C 260.230469 214.644531 260.230469 214.558594 260.230469 214.558594 C 260.230469 214.558594 260.230469 214.644531 260.230469 214.644531 C 260.316406 214.558594 260.316406 214.296875 260.40625 214.121094 C 260.492188 213.859375 260.667969 213.417969 260.667969 213.417969 C 260.667969 213.417969 260.929688 212.980469 261.105469 212.808594 C 261.195312 212.542969 261.457031 212.195312 261.457031 212.195312 C 261.457031 212.195312 261.804688 211.933594 261.894531 211.757812 C 262.070312 211.496094 262.070312 210.96875 262.332031 210.707031 C 262.855469 210.355469 263.996094 210.53125 265.042969 210.007812 C 266.53125 209.304688 268.285156 206.417969 270.210938 206.242188 C 272.136719 205.980469 275.109375 207.644531 276.597656 209.304688 C 278 210.792969 278.613281 214.207031 278.875 215.609375 C 278.960938 216.308594 278.613281 216.832031 278.789062 217.269531 C 278.875 217.621094 279.398438 217.710938 279.488281 218.234375 C 279.75 219.460938 278.613281 224.449219 278 225.148438 C 277.824219 225.324219 277.5625 225.148438 277.386719 225.324219 C 276.863281 225.847656 276.949219 228.039062 275.988281 229 C 274.671875 230.488281 270.472656 232.414062 268.808594 232.0625 C 267.847656 231.890625 267.496094 230.050781 266.796875 229.789062 C 266.183594 229.527344 265.65625 230.226562 264.957031 229.964844 C 263.730469 229.4375 261.457031 226.375 260.492188 224.363281 C 259.53125 222.347656 259.269531 217.796875 259.269531 217.796875 " clip-rule="nonzero"/></clipPath><clipPath id="54a59749b7"><path d="M 221.121094 251.832031 L 247.265625 251.832031 L 247.265625 275.496094 L 221.121094 275.496094 Z M 221.121094 251.832031 " clip-rule="nonzero"/></clipPath><clipPath id="578cac7e1d"><path d="M 221.191406 262.699219 C 225.566406 254.035156 229.417969 253.859375 230.644531 253.949219 C 231.082031 253.949219 231.082031 254.296875 231.519531 254.210938 C 232.394531 254.121094 233.96875 252.371094 235.546875 252.023438 C 237.382812 251.757812 240.097656 252.195312 242.023438 252.984375 C 243.773438 253.859375 245.875 255.261719 246.664062 257.011719 C 247.539062 258.9375 247.277344 262.261719 246.574219 264.539062 C 245.875 266.726562 243.425781 269.703125 242.550781 270.492188 C 242.285156 270.753906 242.199219 270.667969 241.847656 270.839844 C 240.886719 271.542969 238.433594 274.78125 236.335938 275.304688 C 234.234375 275.832031 231.257812 274.957031 229.15625 273.90625 C 227.054688 272.765625 225.304688 270.578125 223.992188 268.652344 C 222.679688 266.902344 221.191406 262.699219 221.191406 262.699219 M 238.960938 256.136719 C 238.960938 256.222656 238.960938 256.136719 238.960938 256.136719 " clip-rule="nonzero"/></clipPath><clipPath id="537eb160a7"><path d="M 128.203125 251.816406 L 150.542969 251.816406 L 150.542969 274.722656 L 128.203125 274.722656 Z M 128.203125 251.816406 " clip-rule="nonzero"/></clipPath><clipPath id="05e4100c07"><path d="M 128.316406 258.0625 C 133.746094 253.421875 134.53125 254.210938 135.496094 254.035156 C 136.722656 253.773438 138.121094 252.023438 139.609375 251.933594 C 141.449219 251.847656 144.597656 253.160156 145.5625 254.035156 C 146 254.472656 145.824219 254.910156 146.175781 255.4375 C 146.875 256.660156 149.589844 258.238281 150.203125 260.074219 C 150.8125 262 150.464844 265.675781 149.5 267.078125 C 148.800781 268.039062 147.050781 267.867188 146.351562 268.742188 C 145.824219 269.441406 146.261719 270.753906 145.5625 271.628906 C 144.511719 272.855469 141.796875 274.519531 139.785156 274.691406 C 137.773438 274.78125 134.882812 273.46875 133.65625 272.328125 C 132.695312 271.453125 132.957031 269.964844 132.167969 268.914062 C 131.382812 267.867188 129.457031 267.515625 128.757812 266.113281 C 127.878906 264.1875 128.316406 258.0625 128.316406 258.0625 " clip-rule="nonzero"/></clipPath><clipPath id="bac2fc3608"><path d="M 160.234375 127.515625 L 185.082031 127.515625 L 185.082031 150.167969 L 160.234375 150.167969 Z M 160.234375 127.515625 " clip-rule="nonzero"/></clipPath><clipPath id="f74bc819c6"><path d="M 160.269531 142.78125 C 162.367188 136.476562 162.367188 136.390625 162.367188 136.390625 C 162.28125 136.390625 162.019531 136.390625 161.929688 136.390625 C 161.84375 136.390625 161.84375 136.390625 161.84375 136.390625 C 161.757812 136.304688 161.929688 134.464844 161.929688 134.464844 C 161.929688 134.464844 161.929688 134.027344 161.929688 133.765625 C 161.929688 133.503906 161.929688 132.976562 161.929688 132.976562 C 161.929688 132.976562 162.019531 132.539062 162.105469 132.277344 C 162.105469 132.015625 162.28125 131.578125 162.28125 131.578125 C 162.28125 131.578125 162.457031 131.140625 162.542969 130.875 C 162.71875 130.703125 162.894531 130.261719 162.894531 130.261719 C 162.894531 130.261719 163.242188 129.914062 163.417969 129.738281 C 163.59375 129.476562 163.855469 129.125 163.855469 129.125 C 163.945312 129.125 164.292969 128.863281 164.46875 128.6875 C 164.730469 128.601562 165.082031 128.335938 165.082031 128.335938 C 165.082031 128.335938 165.605469 128.164062 165.78125 128.074219 C 166.046875 127.988281 166.484375 127.8125 166.484375 127.8125 C 166.484375 127.8125 167.007812 127.726562 167.183594 127.636719 C 167.445312 127.636719 167.972656 127.550781 167.972656 127.550781 C 167.972656 127.550781 168.410156 127.636719 168.671875 127.636719 C 168.933594 127.726562 169.371094 127.726562 169.457031 127.726562 C 169.457031 127.726562 169.898438 127.898438 170.070312 127.988281 C 170.335938 128.074219 170.773438 128.25 170.773438 128.25 C 170.773438 128.25 171.210938 128.511719 171.382812 128.6875 C 171.648438 128.863281 171.996094 129.125 171.996094 129.125 C 171.996094 129.125 172.347656 129.476562 172.523438 129.652344 C 172.699219 129.824219 172.960938 130.175781 173.046875 130.175781 C 173.046875 130.175781 173.222656 130.703125 173.398438 130.875 C 173.398438 130.964844 173.484375 131.226562 173.574219 131.226562 C 173.660156 131.226562 173.660156 130.351562 174.097656 130.175781 C 175.148438 129.652344 179.351562 129.652344 181.011719 130.703125 C 182.589844 131.664062 183.8125 134.464844 183.988281 136.039062 C 184.164062 137.179688 183.203125 137.964844 183.289062 139.191406 C 183.289062 140.765625 185.390625 143.042969 185.039062 144.792969 C 184.601562 146.632812 182.238281 149.082031 180.488281 149.785156 C 178.914062 150.394531 175.761719 149.257812 175.148438 149.347656 C 175.0625 149.433594 175.0625 149.519531 174.972656 149.519531 C 174.625 149.609375 173.136719 149.347656 172.261719 149.519531 C 171.472656 149.609375 170.859375 150.132812 170.160156 150.132812 C 169.285156 150.132812 167.882812 149.433594 167.445312 149.433594 C 167.269531 149.433594 167.269531 149.433594 167.183594 149.433594 C 167.09375 149.433594 167.09375 149.347656 167.007812 149.347656 C 166.746094 149.171875 164.820312 149.171875 163.769531 148.46875 C 162.457031 147.421875 160.269531 142.78125 160.269531 142.78125 " clip-rule="nonzero"/></clipPath><clipPath id="0aa53bd652"><path d="M 189.535156 129.722656 L 213.425781 129.722656 L 213.425781 151.503906 L 189.535156 151.503906 Z M 189.535156 129.722656 " clip-rule="nonzero"/></clipPath><clipPath id="a1dd08bdea"><path d="M 189.589844 142.34375 C 190.992188 132.800781 193.179688 130.613281 194.492188 130.175781 C 195.367188 129.824219 196.855469 130.613281 197.03125 130.527344 C 197.03125 130.527344 197.03125 130.4375 197.03125 130.4375 C 197.46875 130.175781 203.070312 129.476562 204.996094 130 C 206.136719 130.4375 206.574219 131.488281 207.535156 132.015625 C 208.671875 132.539062 210.25 132.101562 211.210938 132.976562 C 212.4375 134.113281 213.664062 137.703125 213.3125 139.542969 C 212.960938 141.03125 210.597656 141.90625 210.074219 143.304688 C 209.722656 144.53125 210.863281 145.933594 210.25 147.15625 C 209.460938 148.820312 205.523438 151.183594 203.773438 151.445312 C 202.808594 151.535156 201.847656 150.484375 201.234375 150.484375 C 200.882812 150.484375 200.796875 150.832031 200.445312 150.832031 C 199.21875 150.746094 194.492188 149.519531 192.65625 147.945312 C 191.078125 146.632812 189.589844 142.34375 189.589844 142.34375 " clip-rule="nonzero"/></clipPath><clipPath id="7b58b46745"><path d="M 162.542969 202.238281 L 216.40625 202.238281 L 216.40625 234.949219 L 162.542969 234.949219 Z M 162.542969 202.238281 " clip-rule="nonzero"/></clipPath><clipPath id="3520f29dd9"><path d="M 162.542969 216.394531 C 166.046875 210.007812 166.308594 210.269531 166.570312 210.007812 C 166.832031 209.832031 166.65625 209.042969 167.007812 208.78125 C 167.796875 208.253906 171.121094 208.78125 171.734375 208.691406 C 171.910156 208.691406 171.996094 208.605469 172.085938 208.605469 C 172.171875 208.605469 172.171875 208.691406 172.261719 208.691406 C 172.523438 208.691406 173.398438 208.519531 173.746094 208.605469 C 174.011719 208.78125 174.097656 209.21875 174.273438 209.394531 C 174.449219 209.480469 174.625 209.570312 174.886719 209.570312 C 175.234375 209.570312 175.5 209.304688 176.113281 209.304688 C 177.335938 209.304688 180.839844 210.269531 181.886719 210.179688 C 182.328125 210.179688 182.414062 209.917969 182.765625 209.917969 C 183.464844 209.917969 185.390625 211.144531 186.003906 211.144531 C 186.265625 211.144531 186.265625 210.96875 186.527344 210.96875 C 187.140625 210.792969 188.714844 211.40625 189.503906 210.882812 C 190.464844 210.355469 190.730469 207.554688 191.605469 207.03125 C 192.21875 206.679688 193.179688 207.46875 193.878906 207.117188 C 194.667969 206.679688 194.84375 204.839844 195.894531 204.054688 C 197.207031 203.089844 199.921875 202.128906 201.933594 202.390625 C 204.035156 202.742188 207.011719 205.105469 208.148438 206.417969 C 208.847656 207.292969 208.671875 208.78125 209.285156 209.128906 C 209.8125 209.394531 210.773438 208.253906 211.648438 208.519531 C 213.050781 209.042969 215.765625 212.019531 216.203125 214.03125 C 216.640625 216.046875 214.539062 218.933594 214.539062 220.597656 C 214.539062 221.734375 215.238281 223.136719 215.152344 223.3125 C 215.152344 223.3125 215.152344 223.3125 215.0625 223.3125 C 214.886719 223.3125 212.789062 223.222656 212.175781 223.835938 C 211.476562 224.535156 212.175781 226.636719 211.648438 228.125 C 211.125 229.964844 210.425781 232.589844 208.671875 233.726562 C 206.660156 235.039062 202.019531 235.390625 199.746094 234.253906 C 197.558594 233.289062 195.542969 228.039062 195.105469 227.949219 C 195.105469 227.949219 195.105469 228.039062 195.019531 228.039062 C 194.492188 228.125 188.628906 228.652344 186.265625 227.949219 C 184.339844 227.425781 181.976562 225.324219 181.714844 225.238281 C 181.625 225.238281 181.625 225.238281 181.625 225.238281 C 181.363281 225.324219 179.613281 230.75 178.210938 231.539062 C 177.425781 232.066406 175.761719 231.277344 175.410156 231.363281 C 175.324219 231.363281 175.234375 231.453125 175.234375 231.453125 C 175.234375 231.453125 174.710938 231.539062 174.535156 231.625 C 174.273438 231.714844 173.835938 231.800781 173.746094 231.800781 C 173.746094 231.800781 173.308594 231.800781 173.046875 231.800781 C 172.785156 231.800781 172.347656 231.800781 172.347656 231.800781 C 172.261719 231.800781 171.820312 231.714844 171.558594 231.625 C 171.382812 231.625 170.859375 231.453125 170.859375 231.453125 C 170.859375 231.453125 170.335938 231.1875 170.246094 231.101562 C 170.160156 231.101562 170.070312 231.015625 169.984375 231.015625 C 169.898438 231.015625 169.632812 231.101562 169.546875 231.015625 C 169.457031 230.925781 169.371094 230.664062 169.285156 230.578125 C 169.195312 230.488281 169.109375 230.402344 169.019531 230.3125 C 168.847656 230.140625 168.496094 229.875 168.410156 229.789062 C 168.410156 229.789062 168.144531 229.4375 168.058594 229.175781 C 167.882812 229 167.621094 228.652344 167.621094 228.652344 C 167.621094 228.5625 167.53125 228.386719 167.445312 228.125 C 167.007812 227.511719 164.558594 225.847656 164.03125 224.449219 C 163.417969 223.046875 164.207031 221.121094 163.945312 219.632812 C 163.683594 218.410156 162.542969 216.394531 162.542969 216.394531 " clip-rule="nonzero"/></clipPath><clipPath id="5caae7836c"><path d="M 177.007812 204 L 183 204 L 183 209.8125 L 177.007812 209.8125 Z M 177.007812 204 " clip-rule="nonzero"/></clipPath><clipPath id="dab6fddfe4"><path d="M 182.925781 208.253906 C 171.035156 212.214844 181.605469 204.289062 181.605469 204.289062 " clip-rule="nonzero"/></clipPath><clipPath id="aa4e10ae8b"><path d="M 277.414062 135.273438 L 283.699219 135.273438 L 283.699219 141 L 277.414062 141 Z M 277.414062 135.273438 " clip-rule="nonzero"/></clipPath><clipPath id="73406686df"><path d="M 283.332031 139.554688 C 271.441406 143.515625 282.011719 135.589844 282.011719 135.589844 " clip-rule="nonzero"/></clipPath></defs><rect x="-37.5" width="450" fill="#ffffff" y="-37.499999" height="449.999989" fill-opacity="1"/><rect x="-37.5" width="450" fill="#ffffff" y="-37.499999" height="449.999989" fill-opacity="1"/><g clip-path="url(#c6fe5a84b2)"><g clip-path="url(#9c3ba7eb60)"><path fill="#0b5cf4" d="M 96.28125 210.269531 L 113.523438 210.269531 L 113.523438 236.066406 L 96.28125 236.066406 Z M 96.28125 210.269531 " fill-opacity="1" fill-rule="nonzero"/></g></g><g clip-path="url(#586673dbbc)"><g clip-path="url(#58b52eba72)"><path fill="#0b5cf4" d="M 95.929688 210.617188 L 115.101562 210.617188 L 115.101562 229.789062 L 95.929688 229.789062 Z M 95.929688 210.617188 " fill-opacity="1" fill-rule="nonzero"/></g></g><g clip-path="url(#becbf0d46a)"><g clip-path="url(#661a21da34)"><path fill="#0b5cf4" d="M 91.203125 204.929688 L 120.160156 204.929688 L 120.160156 232.589844 L 91.203125 232.589844 Z M 91.203125 204.929688 " fill-opacity="1" fill-rule="nonzero"/></g></g><g clip-path="url(#cf208a14fc)"><g clip-path="url(#409c50417e)"><path fill="#0b5cf4" d="M 88.839844 126.324219 L 117.988281 126.324219 L 117.988281 156.953125 L 88.839844 156.953125 Z M 88.839844 126.324219 " fill-opacity="1" fill-rule="nonzero"/></g></g><g clip-path="url(#943cbcac40)"><g clip-path="url(#1a6f926669)"><path fill="#0b5cf4" d="M 125.429688 83.609375 L 155.367188 83.609375 L 155.367188 114.363281 L 125.429688 114.363281 Z M 125.429688 83.609375 " fill-opacity="1" fill-rule="nonzero"/></g></g><g clip-path="url(#6a588932fb)"><g clip-path="url(#91397c08a0)"><path fill="#0b5cf4" d="M 221.367188 78.882812 L 252.703125 78.882812 L 252.703125 112.175781 L 221.367188 112.175781 Z M 221.367188 78.882812 " fill-opacity="1" fill-rule="nonzero"/></g></g><g clip-path="url(#861deb7efd)"><g clip-path="url(#1f825bea85)"><path fill="#0b5cf4" d="M 219.441406 86.847656 L 253.960938 86.847656 L 253.960938 115.820312 L 219.441406 115.820312 Z M 219.441406 86.847656 " fill-opacity="1" fill-rule="nonzero"/></g></g><g clip-path="url(#d180dc8486)"><g clip-path="url(#fbea6f8134)"><path fill="#0b5cf4" d="M 254.277344 119.234375 L 286.226562 119.234375 L 286.226562 158.046875 L 254.277344 158.046875 Z M 254.277344 119.234375 " fill-opacity="1" fill-rule="nonzero"/></g></g><g clip-path="url(#9279c4b6e5)"><g clip-path="url(#37ade63ffe)"><path fill="#0b5cf4" d="M 255.765625 202.742188 L 282.988281 202.742188 L 282.988281 235.707031 L 255.765625 235.707031 Z M 255.765625 202.742188 " fill-opacity="1" fill-rule="nonzero"/></g></g><g clip-path="url(#54a59749b7)"><g clip-path="url(#578cac7e1d)"><path fill="#0b5cf4" d="M 217.691406 248.519531 L 250.222656 248.519531 L 250.222656 278.808594 L 217.691406 278.808594 Z M 217.691406 248.519531 " fill-opacity="1" fill-rule="nonzero"/></g></g><path fill="#0b5cf4" d="M 274.417969 201.839844 L 274.417969 157.050781 C 275 156.902344 275.574219 156.722656 276.136719 156.515625 C 276.703125 156.308594 277.253906 156.070312 277.792969 155.808594 C 278.335938 155.542969 278.859375 155.25 279.367188 154.929688 C 279.878906 154.609375 280.371094 154.265625 280.84375 153.894531 C 281.316406 153.523438 281.769531 153.128906 282.203125 152.710938 C 282.636719 152.292969 283.046875 151.855469 283.433594 151.394531 C 283.820312 150.933594 284.183594 150.457031 284.519531 149.957031 C 284.859375 149.460938 285.167969 148.945312 285.453125 148.417969 C 285.738281 147.886719 285.992188 147.34375 286.21875 146.785156 C 286.449219 146.230469 286.648438 145.664062 286.816406 145.085938 C 286.984375 144.507812 287.121094 143.925781 287.230469 143.332031 C 287.339844 142.742188 287.417969 142.144531 287.464844 141.546875 C 287.507812 140.945312 287.523438 140.347656 287.507812 139.746094 C 287.492188 139.144531 287.445312 138.542969 287.367188 137.949219 C 287.289062 137.351562 287.179688 136.761719 287.042969 136.175781 C 286.902344 135.589844 286.734375 135.015625 286.535156 134.449219 C 286.335938 133.878906 286.105469 133.324219 285.847656 132.78125 C 285.59375 132.238281 285.308594 131.707031 284.996094 131.195312 C 284.683594 130.679688 284.347656 130.183594 283.984375 129.703125 C 283.621094 129.222656 283.234375 128.765625 282.820312 128.324219 C 282.410156 127.886719 281.976562 127.46875 281.523438 127.078125 C 281.070312 126.683594 280.59375 126.3125 280.101562 125.96875 C 279.609375 125.621094 279.101562 125.304688 278.574219 125.011719 C 278.050781 124.71875 277.511719 124.457031 276.957031 124.21875 C 276.402344 123.984375 275.839844 123.777344 275.265625 123.601562 C 274.691406 123.421875 274.109375 123.273438 273.519531 123.15625 C 272.929688 123.039062 272.335938 122.953125 271.734375 122.898438 C 271.136719 122.84375 270.535156 122.820312 269.933594 122.828125 C 269.332031 122.832031 268.734375 122.871094 268.136719 122.941406 C 267.539062 123.007812 266.945312 123.109375 266.359375 123.238281 C 265.773438 123.371094 265.195312 123.53125 264.625 123.722656 C 264.054688 123.914062 263.496094 124.132812 262.945312 124.382812 L 249.113281 107.089844 C 250.25 105.597656 251.121094 103.957031 251.726562 102.179688 C 252.328125 100.402344 252.632812 98.570312 252.640625 96.691406 C 252.640625 95.640625 252.550781 94.601562 252.363281 93.566406 C 252.175781 92.53125 251.898438 91.523438 251.527344 90.539062 C 251.160156 89.558594 250.703125 88.613281 250.164062 87.714844 C 249.625 86.8125 249.007812 85.96875 248.3125 85.179688 C 247.621094 84.390625 246.859375 83.667969 246.035156 83.019531 C 245.210938 82.367188 244.335938 81.792969 243.410156 81.300781 C 242.480469 80.808594 241.515625 80.402344 240.515625 80.085938 C 239.515625 79.769531 238.492188 79.542969 237.449219 79.410156 C 236.40625 79.277344 235.363281 79.238281 234.3125 79.296875 C 233.265625 79.355469 232.230469 79.503906 231.207031 79.75 C 230.1875 79.992188 229.195312 80.328125 228.234375 80.753906 C 227.273438 81.175781 226.355469 81.683594 225.488281 82.273438 C 224.617188 82.863281 223.808594 83.527344 223.0625 84.265625 C 222.3125 85 221.636719 85.800781 221.03125 86.660156 C 220.429688 87.519531 219.90625 88.425781 219.464844 89.378906 C 219.027344 90.335938 218.675781 91.320312 218.414062 92.335938 L 156.203125 92.335938 C 156.046875 91.714844 155.855469 91.101562 155.628906 90.503906 C 155.40625 89.902344 155.148438 89.3125 154.855469 88.742188 C 154.566406 88.167969 154.246094 87.613281 153.894531 87.078125 C 153.542969 86.539062 153.164062 86.023438 152.753906 85.527344 C 152.34375 85.035156 151.910156 84.5625 151.449219 84.117188 C 150.988281 83.667969 150.503906 83.25 149.996094 82.855469 C 149.488281 82.464844 148.960938 82.101562 148.414062 81.765625 C 147.867188 81.429688 147.300781 81.128906 146.71875 80.855469 C 146.136719 80.582031 145.542969 80.34375 144.9375 80.136719 C 144.328125 79.933594 143.710938 79.761719 143.082031 79.621094 C 142.457031 79.484375 141.824219 79.382812 141.1875 79.3125 C 140.546875 79.246094 139.90625 79.214844 139.265625 79.21875 C 138.625 79.222656 137.984375 79.261719 137.347656 79.335938 C 136.707031 79.410156 136.078125 79.519531 135.453125 79.660156 C 134.824219 79.804688 134.210938 79.984375 133.605469 80.195312 C 133 80.410156 132.40625 80.65625 131.828125 80.933594 C 131.25 81.210938 130.6875 81.519531 130.144531 81.859375 C 129.597656 82.199219 129.074219 82.570312 128.570312 82.96875 C 128.070312 83.367188 127.589844 83.792969 127.132812 84.242188 C 126.675781 84.695312 126.246094 85.167969 125.84375 85.667969 C 125.4375 86.167969 125.066406 86.6875 124.71875 87.230469 C 124.371094 87.769531 124.058594 88.328125 123.773438 88.902344 C 123.488281 89.480469 123.238281 90.066406 123.019531 90.671875 C 122.800781 91.273438 122.617188 91.890625 122.464844 92.511719 C 122.3125 93.136719 122.199219 93.765625 122.117188 94.402344 C 122.035156 95.039062 121.992188 95.679688 121.980469 96.320312 C 121.96875 96.964844 121.996094 97.605469 122.058594 98.242188 C 122.117188 98.882812 122.214844 99.515625 122.34375 100.144531 C 122.476562 100.773438 122.640625 101.390625 122.839844 102 C 123.039062 102.613281 123.273438 103.210938 123.539062 103.792969 C 123.804688 104.378906 124.101562 104.945312 124.429688 105.496094 C 124.761719 106.046875 125.117188 106.578125 125.507812 107.089844 L 111.671875 124.382812 C 109.414062 123.351562 107.042969 122.832031 104.558594 122.824219 C 103.507812 122.824219 102.464844 122.914062 101.429688 123.101562 C 100.398438 123.289062 99.386719 123.566406 98.40625 123.9375 C 97.421875 124.304688 96.480469 124.761719 95.578125 125.300781 C 94.675781 125.839844 93.832031 126.457031 93.042969 127.152344 C 92.253906 127.84375 91.535156 128.605469 90.882812 129.429688 C 90.230469 130.253906 89.660156 131.128906 89.164062 132.054688 C 88.671875 132.984375 88.269531 133.949219 87.949219 134.949219 C 87.632812 135.953125 87.40625 136.972656 87.273438 138.015625 C 87.140625 139.058594 87.105469 140.101562 87.160156 141.152344 C 87.21875 142.199219 87.367188 143.238281 87.613281 144.257812 C 87.859375 145.28125 88.191406 146.269531 88.617188 147.230469 C 89.042969 148.191406 89.546875 149.109375 90.136719 149.976562 C 90.730469 150.847656 91.390625 151.65625 92.128906 152.402344 C 92.867188 153.152344 93.664062 153.828125 94.523438 154.433594 C 95.382812 155.039062 96.289062 155.558594 97.242188 156 C 98.199219 156.4375 99.183594 156.789062 100.203125 157.050781 L 100.203125 201.839844 C 99.617188 201.988281 99.046875 202.167969 98.480469 202.375 C 97.917969 202.582031 97.363281 202.820312 96.824219 203.082031 C 96.285156 203.347656 95.757812 203.640625 95.25 203.960938 C 94.742188 204.28125 94.25 204.625 93.773438 204.996094 C 93.300781 205.367188 92.847656 205.761719 92.414062 206.175781 C 91.980469 206.59375 91.570312 207.035156 91.183594 207.496094 C 90.796875 207.953125 90.433594 208.433594 90.097656 208.929688 C 89.761719 209.429688 89.449219 209.941406 89.164062 210.472656 C 88.882812 211.003906 88.625 211.546875 88.398438 212.101562 C 88.167969 212.660156 87.972656 213.226562 87.800781 213.804688 C 87.632812 214.382812 87.496094 214.964844 87.386719 215.558594 C 87.277344 216.148438 87.199219 216.746094 87.15625 217.34375 C 87.109375 217.945312 87.09375 218.542969 87.109375 219.144531 C 87.125 219.746094 87.171875 220.347656 87.25 220.941406 C 87.328125 221.539062 87.4375 222.128906 87.578125 222.714844 C 87.714844 223.300781 87.886719 223.875 88.085938 224.441406 C 88.285156 225.011719 88.511719 225.566406 88.769531 226.109375 C 89.027344 226.652344 89.308594 227.183594 89.621094 227.695312 C 89.933594 228.210938 90.269531 228.707031 90.636719 229.1875 C 91 229.667969 91.386719 230.125 91.796875 230.566406 C 92.207031 231.003906 92.640625 231.421875 93.09375 231.816406 C 93.550781 232.207031 94.023438 232.578125 94.515625 232.921875 C 95.007812 233.269531 95.515625 233.585938 96.042969 233.878906 C 96.570312 234.171875 97.109375 234.433594 97.660156 234.671875 C 98.214844 234.90625 98.777344 235.113281 99.351562 235.292969 C 99.929688 235.46875 100.511719 235.617188 101.101562 235.734375 C 101.691406 235.851562 102.285156 235.9375 102.882812 235.992188 C 103.484375 236.046875 104.082031 236.070312 104.683594 236.0625 C 105.285156 236.058594 105.886719 236.019531 106.480469 235.949219 C 107.078125 235.878906 107.671875 235.78125 108.257812 235.648438 C 108.847656 235.519531 109.425781 235.359375 109.996094 235.167969 C 110.566406 234.976562 111.125 234.757812 111.671875 234.507812 L 125.507812 251.800781 C 124.367188 253.292969 123.496094 254.929688 122.894531 256.710938 C 122.289062 258.488281 121.984375 260.320312 121.980469 262.199219 C 121.976562 263.25 122.070312 264.289062 122.253906 265.324219 C 122.441406 266.359375 122.71875 267.367188 123.089844 268.351562 C 123.460938 269.332031 123.914062 270.277344 124.453125 271.175781 C 124.996094 272.078125 125.613281 272.921875 126.304688 273.710938 C 127 274.5 127.757812 275.222656 128.582031 275.871094 C 129.40625 276.523438 130.28125 277.097656 131.210938 277.589844 C 132.136719 278.082031 133.101562 278.488281 134.101562 278.804688 C 135.105469 279.121094 136.125 279.347656 137.167969 279.480469 C 138.210938 279.613281 139.257812 279.652344 140.304688 279.59375 C 141.355469 279.535156 142.390625 279.386719 143.410156 279.140625 C 144.433594 278.898438 145.425781 278.5625 146.386719 278.136719 C 147.347656 277.714844 148.261719 277.207031 149.128906 276.617188 C 150 276.027344 150.808594 275.363281 151.558594 274.625 C 152.304688 273.886719 152.984375 273.089844 153.585938 272.230469 C 154.191406 271.371094 154.710938 270.464844 155.152344 269.511719 C 155.59375 268.554688 155.941406 267.570312 156.203125 266.554688 L 218.414062 266.554688 C 218.574219 267.175781 218.765625 267.785156 218.988281 268.386719 C 219.214844 268.988281 219.472656 269.574219 219.761719 270.148438 C 220.050781 270.722656 220.371094 271.277344 220.722656 271.8125 C 221.074219 272.351562 221.457031 272.867188 221.863281 273.359375 C 222.273438 273.855469 222.707031 274.328125 223.167969 274.773438 C 223.628906 275.21875 224.113281 275.640625 224.621094 276.03125 C 225.128906 276.425781 225.65625 276.789062 226.203125 277.125 C 226.753906 277.460938 227.316406 277.761719 227.898438 278.035156 C 228.480469 278.304688 229.074219 278.546875 229.683594 278.75 C 230.289062 278.957031 230.90625 279.128906 231.535156 279.269531 C 232.160156 279.40625 232.792969 279.507812 233.433594 279.574219 C 234.070312 279.644531 234.710938 279.675781 235.351562 279.671875 C 235.996094 279.667969 236.632812 279.628906 237.273438 279.554688 C 237.910156 279.480469 238.542969 279.371094 239.167969 279.226562 C 239.792969 279.082031 240.40625 278.90625 241.011719 278.691406 C 241.621094 278.480469 242.210938 278.234375 242.789062 277.957031 C 243.367188 277.679688 243.929688 277.371094 244.472656 277.03125 C 245.019531 276.691406 245.542969 276.320312 246.046875 275.921875 C 246.550781 275.523438 247.027344 275.097656 247.484375 274.648438 C 247.941406 274.195312 248.371094 273.722656 248.773438 273.222656 C 249.179688 272.722656 249.554688 272.203125 249.898438 271.664062 C 250.246094 271.121094 250.5625 270.5625 250.84375 269.988281 C 251.128906 269.414062 251.378906 268.824219 251.597656 268.21875 C 251.816406 267.617188 252.003906 267.003906 252.152344 266.378906 C 252.304688 265.753906 252.421875 265.125 252.5 264.488281 C 252.582031 263.851562 252.628906 263.210938 252.636719 262.570312 C 252.648438 261.925781 252.621094 261.289062 252.5625 260.648438 C 252.5 260.007812 252.40625 259.375 252.273438 258.746094 C 252.144531 258.117188 251.976562 257.5 251.777344 256.890625 C 251.578125 256.28125 251.347656 255.683594 251.082031 255.097656 C 250.8125 254.515625 250.515625 253.945312 250.1875 253.394531 C 249.859375 252.84375 249.5 252.3125 249.113281 251.800781 L 262.945312 234.511719 C 263.496094 234.757812 264.054688 234.976562 264.625 235.164062 C 265.191406 235.355469 265.773438 235.515625 266.359375 235.644531 C 266.945312 235.773438 267.535156 235.871094 268.132812 235.941406 C 268.730469 236.007812 269.328125 236.046875 269.929688 236.050781 C 270.53125 236.058594 271.128906 236.03125 271.726562 235.976562 C 272.324219 235.921875 272.917969 235.835938 273.507812 235.714844 C 274.097656 235.597656 274.679688 235.449219 275.253906 235.273438 C 275.824219 235.09375 276.390625 234.886719 276.941406 234.652344 C 277.492188 234.414062 278.03125 234.152344 278.558594 233.859375 C 279.082031 233.566406 279.589844 233.25 280.082031 232.902344 C 280.574219 232.558594 281.046875 232.191406 281.5 231.796875 C 281.953125 231.402344 282.386719 230.984375 282.796875 230.546875 C 283.207031 230.109375 283.59375 229.648438 283.957031 229.171875 C 284.320312 228.691406 284.65625 228.195312 284.96875 227.683594 C 285.277344 227.167969 285.5625 226.640625 285.820312 226.097656 C 286.074219 225.554688 286.304688 225 286.503906 224.433594 C 286.703125 223.863281 286.871094 223.289062 287.007812 222.707031 C 287.148438 222.121094 287.257812 221.53125 287.335938 220.933594 C 287.414062 220.339844 287.460938 219.742188 287.476562 219.140625 C 287.492188 218.539062 287.476562 217.941406 287.433594 217.34375 C 287.386719 216.742188 287.308594 216.148438 287.203125 215.558594 C 287.09375 214.964844 286.957031 214.382812 286.789062 213.804688 C 286.617188 213.230469 286.421875 212.664062 286.195312 212.105469 C 285.96875 211.550781 285.710938 211.007812 285.429688 210.476562 C 285.144531 209.949219 284.835938 209.433594 284.5 208.9375 C 284.164062 208.441406 283.800781 207.960938 283.414062 207.5 C 283.027344 207.039062 282.621094 206.601562 282.1875 206.183594 C 281.753906 205.765625 281.304688 205.371094 280.832031 205 C 280.359375 204.632812 279.867188 204.285156 279.359375 203.964844 C 278.851562 203.644531 278.328125 203.351562 277.789062 203.085938 C 277.25 202.820312 276.699219 202.585938 276.136719 202.375 C 275.570312 202.167969 275 201.988281 274.417969 201.839844 Z M 235.21875 244.777344 C 232.734375 244.78125 230.363281 245.300781 228.105469 246.332031 L 214.273438 229.039062 C 214.816406 228.324219 215.300781 227.574219 215.726562 226.785156 C 216.152344 225.996094 216.515625 225.179688 216.8125 224.335938 C 217.113281 223.488281 217.34375 222.625 217.507812 221.742188 C 217.671875 220.863281 217.765625 219.972656 217.789062 219.078125 C 217.816406 218.179688 217.769531 217.289062 217.65625 216.398438 C 217.542969 215.507812 217.359375 214.632812 217.109375 213.773438 C 216.855469 212.914062 216.539062 212.078125 216.160156 211.265625 C 215.777344 210.453125 215.335938 209.675781 214.832031 208.933594 L 235.21875 186 L 255.605469 208.9375 C 255.101562 209.679688 254.660156 210.457031 254.277344 211.265625 C 253.894531 212.078125 253.582031 212.914062 253.328125 213.773438 C 253.078125 214.636719 252.894531 215.511719 252.78125 216.398438 C 252.667969 217.289062 252.621094 218.183594 252.648438 219.078125 C 252.671875 219.976562 252.765625 220.863281 252.929688 221.746094 C 253.09375 222.625 253.324219 223.492188 253.625 224.335938 C 253.921875 225.179688 254.285156 226 254.710938 226.785156 C 255.136719 227.574219 255.621094 228.328125 256.164062 229.039062 L 242.332031 246.332031 C 240.074219 245.300781 237.703125 244.78125 235.21875 244.777344 Z M 132.285156 246.332031 L 118.453125 229.042969 C 118.996094 228.328125 119.480469 227.578125 119.90625 226.789062 C 120.332031 226 120.695312 225.183594 120.996094 224.335938 C 121.292969 223.492188 121.523438 222.628906 121.6875 221.746094 C 121.851562 220.863281 121.945312 219.976562 121.972656 219.078125 C 121.996094 218.183594 121.953125 217.289062 121.839844 216.402344 C 121.722656 215.511719 121.539062 214.636719 121.289062 213.777344 C 121.039062 212.914062 120.722656 212.078125 120.339844 211.269531 C 119.960938 210.457031 119.515625 209.679688 119.015625 208.9375 L 139.402344 186.003906 L 159.785156 208.9375 C 159.285156 209.679688 158.839844 210.457031 158.460938 211.265625 C 158.078125 212.078125 157.761719 212.914062 157.511719 213.777344 C 157.257812 214.636719 157.078125 215.511719 156.960938 216.402344 C 156.847656 217.289062 156.804688 218.183594 156.828125 219.078125 C 156.851562 219.976562 156.949219 220.863281 157.113281 221.746094 C 157.277344 222.628906 157.507812 223.492188 157.804688 224.335938 C 158.105469 225.183594 158.46875 226 158.894531 226.789062 C 159.320312 227.578125 159.804688 228.328125 160.347656 229.039062 L 146.515625 246.332031 C 145.398438 245.820312 144.242188 245.433594 143.042969 245.167969 C 141.84375 244.90625 140.628906 244.777344 139.402344 244.777344 C 138.171875 244.777344 136.957031 244.90625 135.757812 245.167969 C 134.558594 245.433594 133.402344 245.820312 132.285156 246.332031 Z M 112.453125 155.6875 L 133.570312 179.445312 L 112.453125 203.203125 C 111.324219 202.617188 110.144531 202.164062 108.914062 201.839844 L 108.914062 157.050781 C 110.144531 156.726562 111.324219 156.273438 112.453125 155.6875 Z M 139.398438 114.113281 C 141.882812 114.109375 144.257812 113.589844 146.515625 112.558594 L 160.347656 129.847656 C 159.804688 130.5625 159.320312 131.3125 158.894531 132.101562 C 158.46875 132.890625 158.105469 133.707031 157.804688 134.554688 C 157.507812 135.398438 157.277344 136.261719 157.113281 137.144531 C 156.949219 138.027344 156.851562 138.914062 156.828125 139.8125 C 156.804688 140.707031 156.847656 141.601562 156.960938 142.488281 C 157.078125 143.378906 157.257812 144.253906 157.511719 145.113281 C 157.761719 145.976562 158.078125 146.8125 158.460938 147.625 C 158.839844 148.433594 159.285156 149.210938 159.785156 149.953125 L 139.402344 172.886719 L 119.015625 149.953125 C 119.515625 149.210938 119.960938 148.433594 120.339844 147.621094 C 120.722656 146.8125 121.039062 145.976562 121.289062 145.113281 C 121.539062 144.253906 121.722656 143.378906 121.839844 142.488281 C 121.953125 141.601562 121.996094 140.707031 121.972656 139.8125 C 121.945312 138.914062 121.851562 138.027344 121.6875 137.144531 C 121.523438 136.261719 121.292969 135.398438 120.996094 134.554688 C 120.695312 133.707031 120.332031 132.890625 119.90625 132.101562 C 119.480469 131.3125 118.996094 130.5625 118.453125 129.851562 L 132.285156 112.558594 C 134.546875 113.589844 136.917969 114.109375 139.398438 114.113281 Z M 242.332031 112.558594 L 256.164062 129.851562 C 255.621094 130.5625 255.136719 131.316406 254.710938 132.105469 C 254.285156 132.894531 253.921875 133.710938 253.625 134.554688 C 253.324219 135.402344 253.09375 136.265625 252.929688 137.144531 C 252.765625 138.027344 252.671875 138.917969 252.648438 139.8125 C 252.621094 140.707031 252.667969 141.601562 252.78125 142.492188 C 252.894531 143.378906 253.078125 144.253906 253.328125 145.117188 C 253.582031 145.976562 253.898438 146.8125 254.277344 147.625 C 254.660156 148.4375 255.101562 149.210938 255.605469 149.953125 L 235.21875 172.890625 L 214.832031 149.953125 C 215.335938 149.210938 215.777344 148.4375 216.160156 147.625 C 216.539062 146.8125 216.855469 145.976562 217.109375 145.117188 C 217.359375 144.253906 217.542969 143.378906 217.65625 142.492188 C 217.769531 141.601562 217.816406 140.707031 217.789062 139.8125 C 217.765625 138.917969 217.671875 138.027344 217.507812 137.144531 C 217.34375 136.265625 217.113281 135.402344 216.8125 134.554688 C 216.515625 133.710938 216.152344 132.894531 215.726562 132.105469 C 215.300781 131.316406 214.816406 130.5625 214.273438 129.851562 L 228.105469 112.558594 C 229.21875 113.070312 230.378906 113.457031 231.578125 113.722656 C 232.777344 113.984375 233.988281 114.113281 235.21875 114.113281 C 236.445312 114.113281 237.660156 113.984375 238.859375 113.722656 C 240.058594 113.460938 241.214844 113.070312 242.332031 112.558594 Z M 174.242188 148.957031 C 173.671875 148.957031 173.105469 148.902344 172.542969 148.789062 C 171.984375 148.679688 171.4375 148.511719 170.910156 148.292969 C 170.382812 148.074219 169.878906 147.808594 169.402344 147.488281 C 168.929688 147.171875 168.488281 146.8125 168.082031 146.40625 C 167.679688 146 167.316406 145.5625 167 145.085938 C 166.683594 144.609375 166.414062 144.109375 166.195312 143.582031 C 165.976562 143.050781 165.8125 142.507812 165.699219 141.945312 C 165.589844 141.386719 165.53125 140.820312 165.53125 140.246094 C 165.53125 139.675781 165.589844 139.109375 165.699219 138.546875 C 165.8125 137.988281 165.976562 137.441406 166.195312 136.914062 C 166.414062 136.386719 166.683594 135.882812 167 135.40625 C 167.316406 134.933594 167.679688 134.492188 168.082031 134.085938 C 168.488281 133.683594 168.929688 133.320312 169.402344 133.003906 C 169.878906 132.6875 170.382812 132.417969 170.910156 132.199219 C 171.4375 131.980469 171.984375 131.816406 172.542969 131.703125 C 173.105469 131.589844 173.671875 131.535156 174.242188 131.535156 C 174.816406 131.535156 175.382812 131.589844 175.941406 131.703125 C 176.503906 131.816406 177.046875 131.980469 177.578125 132.199219 C 178.105469 132.417969 178.605469 132.6875 179.082031 133.003906 C 179.558594 133.320312 180 133.683594 180.402344 134.085938 C 180.808594 134.492188 181.167969 134.933594 181.484375 135.40625 C 181.804688 135.882812 182.070312 136.386719 182.289062 136.914062 C 182.507812 137.441406 182.675781 137.988281 182.785156 138.546875 C 182.898438 139.109375 182.953125 139.675781 182.953125 140.246094 C 182.953125 140.820312 182.898438 141.386719 182.785156 141.945312 C 182.671875 142.507812 182.507812 143.050781 182.289062 143.578125 C 182.070312 144.105469 181.800781 144.609375 181.484375 145.085938 C 181.164062 145.558594 180.804688 146 180.398438 146.402344 C 179.996094 146.808594 179.554688 147.167969 179.082031 147.488281 C 178.605469 147.804688 178.101562 148.074219 177.574219 148.292969 C 177.046875 148.511719 176.503906 148.675781 175.941406 148.789062 C 175.382812 148.902344 174.816406 148.957031 174.242188 148.957031 Z M 166.347656 155.6875 C 167.476562 156.273438 168.65625 156.726562 169.886719 157.050781 L 169.886719 201.839844 C 168.65625 202.164062 167.476562 202.617188 166.347656 203.203125 L 145.230469 179.445312 Z M 165.53125 218.644531 C 165.53125 218.070312 165.589844 217.503906 165.699219 216.945312 C 165.8125 216.382812 165.976562 215.839844 166.195312 215.308594 C 166.414062 214.78125 166.683594 214.28125 167 213.804688 C 167.316406 213.328125 167.679688 212.886719 168.082031 212.484375 C 168.488281 212.078125 168.929688 211.71875 169.402344 211.402344 C 169.878906 211.082031 170.382812 210.816406 170.910156 210.597656 C 171.4375 210.378906 171.984375 210.210938 172.542969 210.101562 C 173.105469 209.988281 173.671875 209.933594 174.242188 209.933594 C 174.816406 209.933594 175.382812 209.988281 175.941406 210.101562 C 176.503906 210.210938 177.046875 210.378906 177.578125 210.597656 C 178.105469 210.816406 178.605469 211.082031 179.082031 211.402344 C 179.558594 211.71875 180 212.078125 180.402344 212.484375 C 180.808594 212.886719 181.167969 213.328125 181.484375 213.804688 C 181.804688 214.28125 182.070312 214.78125 182.289062 215.308594 C 182.507812 215.839844 182.675781 216.382812 182.785156 216.945312 C 182.898438 217.503906 182.953125 218.070312 182.953125 218.644531 C 182.953125 219.214844 182.898438 219.78125 182.785156 220.34375 C 182.675781 220.902344 182.507812 221.449219 182.289062 221.976562 C 182.070312 222.503906 181.804688 223.007812 181.484375 223.484375 C 181.167969 223.957031 180.808594 224.398438 180.402344 224.804688 C 180 225.207031 179.558594 225.570312 179.082031 225.886719 C 178.605469 226.203125 178.105469 226.472656 177.578125 226.691406 C 177.046875 226.910156 176.503906 227.074219 175.941406 227.1875 C 175.382812 227.296875 174.816406 227.355469 174.242188 227.355469 C 173.671875 227.355469 173.105469 227.296875 172.542969 227.1875 C 171.984375 227.074219 171.4375 226.90625 170.910156 226.6875 C 170.382812 226.46875 169.882812 226.203125 169.40625 225.882812 C 168.929688 225.566406 168.492188 225.203125 168.085938 224.800781 C 167.683594 224.394531 167.320312 223.957031 167.003906 223.480469 C 166.683594 223.003906 166.417969 222.503906 166.199219 221.976562 C 165.980469 221.449219 165.8125 220.902344 165.703125 220.34375 C 165.589844 219.78125 165.53125 219.214844 165.53125 218.644531 Z M 178.597656 201.839844 L 178.597656 157.050781 C 180.289062 156.609375 181.878906 155.925781 183.363281 155.007812 C 184.847656 154.085938 186.164062 152.964844 187.308594 151.648438 C 188.457031 152.964844 189.773438 154.085938 191.257812 155.007812 C 192.742188 155.925781 194.328125 156.609375 196.019531 157.050781 L 196.019531 201.839844 C 194.328125 202.28125 192.742188 202.960938 191.257812 203.882812 C 189.773438 204.804688 188.457031 205.925781 187.308594 207.242188 C 186.164062 205.925781 184.847656 204.804688 183.363281 203.882812 C 181.878906 202.960938 180.289062 202.28125 178.597656 201.839844 Z M 209.085938 140.246094 C 209.085938 140.820312 209.03125 141.386719 208.917969 141.945312 C 208.808594 142.507812 208.640625 143.050781 208.421875 143.582031 C 208.203125 144.109375 207.9375 144.609375 207.617188 145.085938 C 207.300781 145.5625 206.9375 146 206.535156 146.40625 C 206.128906 146.8125 205.691406 147.171875 205.214844 147.488281 C 204.738281 147.808594 204.238281 148.074219 203.707031 148.292969 C 203.179688 148.511719 202.636719 148.679688 202.074219 148.789062 C 201.515625 148.902344 200.949219 148.957031 200.375 148.957031 C 199.804688 148.957031 199.238281 148.902344 198.675781 148.789062 C 198.113281 148.679688 197.570312 148.511719 197.042969 148.292969 C 196.511719 148.074219 196.011719 147.808594 195.535156 147.488281 C 195.058594 147.171875 194.621094 146.8125 194.214844 146.40625 C 193.8125 146 193.449219 145.5625 193.132812 145.085938 C 192.816406 144.609375 192.546875 144.109375 192.328125 143.582031 C 192.109375 143.050781 191.945312 142.507812 191.832031 141.945312 C 191.71875 141.386719 191.664062 140.820312 191.664062 140.246094 C 191.664062 139.675781 191.71875 139.109375 191.832031 138.546875 C 191.945312 137.988281 192.109375 137.441406 192.328125 136.914062 C 192.546875 136.386719 192.816406 135.882812 193.132812 135.40625 C 193.449219 134.933594 193.8125 134.492188 194.214844 134.085938 C 194.621094 133.683594 195.058594 133.320312 195.535156 133.003906 C 196.011719 132.6875 196.511719 132.417969 197.042969 132.199219 C 197.570312 131.980469 198.113281 131.816406 198.675781 131.703125 C 199.238281 131.589844 199.804688 131.535156 200.375 131.535156 C 200.949219 131.535156 201.511719 131.59375 202.074219 131.703125 C 202.636719 131.816406 203.179688 131.984375 203.707031 132.203125 C 204.234375 132.421875 204.738281 132.6875 205.210938 133.007812 C 205.6875 133.324219 206.128906 133.6875 206.53125 134.089844 C 206.9375 134.496094 207.296875 134.933594 207.613281 135.410156 C 207.933594 135.886719 208.203125 136.386719 208.421875 136.914062 C 208.640625 137.441406 208.804688 137.988281 208.917969 138.546875 C 209.027344 139.109375 209.085938 139.675781 209.085938 140.246094 Z M 200.375 209.933594 C 200.949219 209.933594 201.515625 209.988281 202.074219 210.101562 C 202.636719 210.210938 203.179688 210.378906 203.707031 210.597656 C 204.238281 210.816406 204.738281 211.082031 205.214844 211.402344 C 205.691406 211.71875 206.128906 212.078125 206.535156 212.484375 C 206.9375 212.886719 207.300781 213.328125 207.617188 213.804688 C 207.9375 214.28125 208.203125 214.78125 208.421875 215.308594 C 208.640625 215.839844 208.808594 216.382812 208.917969 216.945312 C 209.03125 217.503906 209.085938 218.070312 209.085938 218.644531 C 209.085938 219.214844 209.03125 219.78125 208.917969 220.34375 C 208.808594 220.902344 208.640625 221.449219 208.421875 221.976562 C 208.203125 222.503906 207.9375 223.007812 207.617188 223.484375 C 207.300781 223.957031 206.9375 224.398438 206.535156 224.804688 C 206.128906 225.207031 205.691406 225.570312 205.214844 225.886719 C 204.738281 226.203125 204.238281 226.472656 203.707031 226.691406 C 203.179688 226.910156 202.636719 227.074219 202.074219 227.1875 C 201.515625 227.296875 200.949219 227.355469 200.375 227.355469 C 199.804688 227.355469 199.238281 227.296875 198.675781 227.1875 C 198.113281 227.074219 197.570312 226.910156 197.042969 226.691406 C 196.511719 226.472656 196.011719 226.203125 195.535156 225.886719 C 195.058594 225.570312 194.621094 225.207031 194.214844 224.804688 C 193.8125 224.398438 193.449219 223.957031 193.132812 223.484375 C 192.816406 223.007812 192.546875 222.503906 192.328125 221.976562 C 192.109375 221.449219 191.945312 220.902344 191.832031 220.34375 C 191.71875 219.78125 191.664062 219.214844 191.664062 218.644531 C 191.664062 218.070312 191.722656 217.503906 191.832031 216.945312 C 191.945312 216.382812 192.113281 215.839844 192.332031 215.3125 C 192.550781 214.785156 192.816406 214.28125 193.136719 213.808594 C 193.453125 213.332031 193.816406 212.890625 194.21875 212.488281 C 194.625 212.082031 195.0625 211.722656 195.539062 211.402344 C 196.015625 211.085938 196.515625 210.816406 197.042969 210.597656 C 197.570312 210.378906 198.117188 210.214844 198.675781 210.101562 C 199.238281 209.988281 199.804688 209.933594 200.375 209.933594 Z M 208.273438 203.203125 C 207.144531 202.617188 205.960938 202.164062 204.730469 201.839844 L 204.730469 157.050781 C 205.960938 156.726562 207.144531 156.273438 208.273438 155.6875 L 229.390625 179.445312 Z M 221.324219 107.089844 L 207.488281 124.382812 C 206.648438 123.996094 205.78125 123.679688 204.886719 123.433594 C 203.992188 123.191406 203.085938 123.019531 202.164062 122.921875 C 201.242188 122.824219 200.320312 122.800781 199.394531 122.851562 C 198.46875 122.902344 197.554688 123.03125 196.652344 123.230469 C 195.746094 123.429688 194.863281 123.703125 194.003906 124.046875 C 193.144531 124.386719 192.316406 124.796875 191.523438 125.277344 C 190.726562 125.753906 189.976562 126.292969 189.269531 126.890625 C 188.5625 127.488281 187.910156 128.140625 187.308594 128.847656 C 186.707031 128.140625 186.054688 127.488281 185.347656 126.890625 C 184.640625 126.292969 183.890625 125.753906 183.097656 125.277344 C 182.304688 124.796875 181.476562 124.386719 180.613281 124.046875 C 179.753906 123.703125 178.871094 123.429688 177.96875 123.230469 C 177.0625 123.03125 176.148438 122.902344 175.222656 122.851562 C 174.296875 122.800781 173.375 122.824219 172.453125 122.921875 C 171.53125 123.019531 170.625 123.191406 169.730469 123.433594 C 168.839844 123.679688 167.972656 123.996094 167.128906 124.382812 L 153.292969 107.089844 C 154.664062 105.265625 155.632812 103.253906 156.203125 101.046875 L 218.414062 101.046875 C 218.988281 103.253906 219.957031 105.265625 221.324219 107.089844 Z M 153.292969 251.800781 L 167.128906 234.507812 C 167.96875 234.894531 168.839844 235.210938 169.730469 235.453125 C 170.625 235.699219 171.53125 235.871094 172.453125 235.96875 C 173.375 236.066406 174.296875 236.089844 175.222656 236.039062 C 176.148438 235.988281 177.0625 235.859375 177.96875 235.660156 C 178.871094 235.460938 179.753906 235.1875 180.613281 234.847656 C 181.476562 234.503906 182.300781 234.09375 183.097656 233.613281 C 183.890625 233.136719 184.640625 232.597656 185.347656 232 C 186.054688 231.402344 186.707031 230.75 187.308594 230.042969 C 187.910156 230.75 188.5625 231.402344 189.269531 232 C 189.976562 232.597656 190.726562 233.136719 191.523438 233.613281 C 192.316406 234.09375 193.144531 234.503906 194.003906 234.84375 C 194.863281 235.1875 195.746094 235.460938 196.652344 235.660156 C 197.554688 235.859375 198.472656 235.988281 199.394531 236.039062 C 200.320312 236.089844 201.242188 236.066406 202.164062 235.96875 C 203.085938 235.871094 203.992188 235.699219 204.886719 235.457031 C 205.78125 235.210938 206.648438 234.894531 207.492188 234.507812 L 221.324219 251.800781 C 219.957031 253.621094 218.988281 255.636719 218.414062 257.84375 L 156.203125 257.84375 C 155.632812 255.636719 154.664062 253.621094 153.292969 251.800781 Z M 262.164062 203.203125 L 241.042969 179.445312 L 262.164062 155.6875 C 263.292969 156.273438 264.476562 156.726562 265.707031 157.050781 L 265.707031 201.839844 C 264.472656 202.164062 263.292969 202.617188 262.164062 203.203125 Z M 278.773438 140.246094 C 278.773438 140.820312 278.714844 141.386719 278.605469 141.945312 C 278.492188 142.507812 278.328125 143.050781 278.109375 143.582031 C 277.890625 144.109375 277.621094 144.609375 277.304688 145.085938 C 276.988281 145.5625 276.625 146 276.222656 146.40625 C 275.816406 146.8125 275.375 147.171875 274.902344 147.488281 C 274.425781 147.808594 273.921875 148.074219 273.394531 148.292969 C 272.867188 148.511719 272.320312 148.679688 271.761719 148.789062 C 271.199219 148.902344 270.632812 148.957031 270.0625 148.957031 C 269.488281 148.957031 268.921875 148.902344 268.363281 148.789062 C 267.800781 148.679688 267.257812 148.511719 266.726562 148.292969 C 266.199219 148.074219 265.699219 147.808594 265.222656 147.488281 C 264.746094 147.171875 264.308594 146.8125 263.902344 146.40625 C 263.496094 146 263.136719 145.5625 262.820312 145.085938 C 262.5 144.609375 262.234375 144.109375 262.015625 143.582031 C 261.796875 143.050781 261.628906 142.507812 261.519531 141.945312 C 261.40625 141.386719 261.351562 140.820312 261.351562 140.246094 C 261.351562 139.675781 261.40625 139.109375 261.519531 138.546875 C 261.628906 137.988281 261.796875 137.441406 262.015625 136.914062 C 262.234375 136.386719 262.5 135.882812 262.820312 135.40625 C 263.136719 134.933594 263.496094 134.492188 263.902344 134.085938 C 264.308594 133.683594 264.746094 133.320312 265.222656 133.003906 C 265.699219 132.6875 266.199219 132.417969 266.726562 132.199219 C 267.257812 131.980469 267.800781 131.816406 268.363281 131.703125 C 268.921875 131.589844 269.488281 131.535156 270.0625 131.535156 C 270.632812 131.535156 271.199219 131.59375 271.761719 131.703125 C 272.320312 131.816406 272.867188 131.984375 273.394531 132.203125 C 273.921875 132.421875 274.421875 132.6875 274.898438 133.007812 C 275.375 133.324219 275.8125 133.6875 276.21875 134.089844 C 276.621094 134.496094 276.984375 134.933594 277.300781 135.410156 C 277.617188 135.886719 277.886719 136.386719 278.105469 136.914062 C 278.324219 137.441406 278.492188 137.988281 278.601562 138.546875 C 278.714844 139.109375 278.773438 139.675781 278.773438 140.246094 Z M 235.21875 87.980469 C 235.789062 87.980469 236.355469 88.039062 236.917969 88.148438 C 237.480469 88.261719 238.023438 88.425781 238.550781 88.644531 C 239.082031 88.863281 239.582031 89.132812 240.058594 89.449219 C 240.535156 89.769531 240.972656 90.128906 241.378906 90.535156 C 241.78125 90.9375 242.144531 91.378906 242.460938 91.851562 C 242.777344 92.328125 243.046875 92.832031 243.265625 93.359375 C 243.484375 93.886719 243.648438 94.433594 243.761719 94.992188 C 243.875 95.554688 243.929688 96.121094 243.929688 96.691406 C 243.929688 97.265625 243.875 97.832031 243.761719 98.390625 C 243.648438 98.953125 243.484375 99.496094 243.265625 100.027344 C 243.046875 100.554688 242.777344 101.058594 242.460938 101.53125 C 242.144531 102.007812 241.78125 102.449219 241.378906 102.851562 C 240.972656 103.257812 240.535156 103.617188 240.058594 103.9375 C 239.582031 104.253906 239.082031 104.523438 238.550781 104.742188 C 238.023438 104.960938 237.480469 105.125 236.917969 105.234375 C 236.355469 105.347656 235.789062 105.402344 235.21875 105.402344 C 234.648438 105.402344 234.082031 105.347656 233.519531 105.234375 C 232.957031 105.125 232.414062 104.960938 231.886719 104.742188 C 231.355469 104.523438 230.855469 104.253906 230.378906 103.9375 C 229.902344 103.617188 229.464844 103.257812 229.058594 102.851562 C 228.65625 102.449219 228.292969 102.007812 227.976562 101.53125 C 227.65625 101.058594 227.390625 100.554688 227.171875 100.027344 C 226.953125 99.496094 226.785156 98.953125 226.675781 98.390625 C 226.5625 97.832031 226.507812 97.265625 226.507812 96.691406 C 226.507812 96.121094 226.566406 95.554688 226.675781 94.996094 C 226.789062 94.433594 226.953125 93.890625 227.171875 93.359375 C 227.394531 92.832031 227.660156 92.332031 227.980469 91.855469 C 228.296875 91.378906 228.65625 90.941406 229.0625 90.535156 C 229.464844 90.132812 229.90625 89.769531 230.382812 89.453125 C 230.855469 89.136719 231.359375 88.867188 231.886719 88.648438 C 232.414062 88.429688 232.960938 88.261719 233.519531 88.152344 C 234.082031 88.039062 234.648438 87.984375 235.21875 87.980469 Z M 139.398438 87.980469 C 139.972656 87.980469 140.539062 88.039062 141.097656 88.148438 C 141.660156 88.261719 142.207031 88.425781 142.734375 88.644531 C 143.261719 88.863281 143.765625 89.132812 144.238281 89.449219 C 144.714844 89.769531 145.15625 90.128906 145.558594 90.535156 C 145.964844 90.9375 146.324219 91.378906 146.644531 91.851562 C 146.960938 92.328125 147.230469 92.832031 147.449219 93.359375 C 147.667969 93.886719 147.832031 94.433594 147.945312 94.992188 C 148.054688 95.554688 148.109375 96.121094 148.109375 96.691406 C 148.109375 97.265625 148.054688 97.832031 147.945312 98.390625 C 147.832031 98.953125 147.667969 99.496094 147.449219 100.027344 C 147.230469 100.554688 146.960938 101.058594 146.644531 101.53125 C 146.324219 102.007812 145.964844 102.449219 145.558594 102.851562 C 145.15625 103.257812 144.714844 103.617188 144.238281 103.9375 C 143.765625 104.253906 143.261719 104.523438 142.734375 104.742188 C 142.207031 104.960938 141.660156 105.125 141.097656 105.234375 C 140.539062 105.347656 139.972656 105.402344 139.398438 105.402344 C 138.828125 105.402344 138.261719 105.347656 137.699219 105.234375 C 137.140625 105.125 136.59375 104.960938 136.066406 104.742188 C 135.539062 104.523438 135.035156 104.253906 134.5625 103.9375 C 134.085938 103.617188 133.644531 103.257812 133.242188 102.851562 C 132.835938 102.449219 132.476562 102.007812 132.15625 101.53125 C 131.839844 101.058594 131.570312 100.554688 131.351562 100.027344 C 131.132812 99.496094 130.96875 98.953125 130.855469 98.390625 C 130.746094 97.832031 130.6875 97.265625 130.6875 96.691406 C 130.691406 96.121094 130.746094 95.554688 130.859375 94.996094 C 130.96875 94.433594 131.136719 93.890625 131.355469 93.359375 C 131.574219 92.832031 131.84375 92.332031 132.160156 91.855469 C 132.476562 91.378906 132.839844 90.941406 133.242188 90.535156 C 133.648438 90.132812 134.085938 89.769531 134.5625 89.453125 C 135.039062 89.136719 135.539062 88.867188 136.066406 88.648438 C 136.597656 88.429688 137.140625 88.261719 137.703125 88.152344 C 138.261719 88.039062 138.828125 87.984375 139.398438 87.980469 Z M 95.847656 140.246094 C 95.847656 139.675781 95.902344 139.109375 96.011719 138.546875 C 96.125 137.988281 96.289062 137.441406 96.507812 136.914062 C 96.726562 136.386719 96.996094 135.882812 97.3125 135.40625 C 97.632812 134.933594 97.992188 134.492188 98.398438 134.085938 C 98.800781 133.683594 99.242188 133.320312 99.71875 133.003906 C 100.191406 132.6875 100.695312 132.417969 101.222656 132.199219 C 101.753906 131.980469 102.296875 131.816406 102.859375 131.703125 C 103.417969 131.589844 103.984375 131.535156 104.558594 131.535156 C 105.128906 131.535156 105.695312 131.589844 106.257812 131.703125 C 106.816406 131.816406 107.363281 131.980469 107.890625 132.199219 C 108.417969 132.417969 108.921875 132.6875 109.398438 133.003906 C 109.871094 133.320312 110.3125 133.683594 110.714844 134.085938 C 111.121094 134.492188 111.480469 134.933594 111.800781 135.40625 C 112.117188 135.882812 112.386719 136.386719 112.605469 136.914062 C 112.824219 137.441406 112.988281 137.988281 113.101562 138.546875 C 113.210938 139.109375 113.269531 139.675781 113.269531 140.246094 C 113.269531 140.820312 113.210938 141.386719 113.101562 141.945312 C 112.988281 142.507812 112.824219 143.050781 112.605469 143.582031 C 112.386719 144.109375 112.117188 144.609375 111.800781 145.085938 C 111.480469 145.5625 111.121094 146 110.714844 146.40625 C 110.3125 146.8125 109.871094 147.171875 109.398438 147.488281 C 108.921875 147.808594 108.417969 148.074219 107.890625 148.292969 C 107.363281 148.511719 106.816406 148.679688 106.257812 148.789062 C 105.695312 148.902344 105.128906 148.957031 104.558594 148.957031 C 103.984375 148.957031 103.417969 148.902344 102.859375 148.789062 C 102.296875 148.675781 101.753906 148.511719 101.226562 148.292969 C 100.695312 148.074219 100.195312 147.804688 99.71875 147.488281 C 99.246094 147.167969 98.804688 146.808594 98.398438 146.402344 C 97.996094 146 97.636719 145.558594 97.316406 145.085938 C 97 144.609375 96.730469 144.105469 96.511719 143.578125 C 96.292969 143.050781 96.128906 142.507812 96.015625 141.945312 C 95.902344 141.386719 95.847656 140.820312 95.847656 140.246094 Z M 95.847656 218.644531 C 95.847656 218.070312 95.902344 217.503906 96.011719 216.945312 C 96.125 216.382812 96.289062 215.839844 96.507812 215.308594 C 96.726562 214.78125 96.996094 214.28125 97.3125 213.804688 C 97.632812 213.328125 97.992188 212.886719 98.398438 212.484375 C 98.800781 212.078125 99.242188 211.71875 99.71875 211.402344 C 100.191406 211.082031 100.695312 210.816406 101.222656 210.597656 C 101.753906 210.378906 102.296875 210.210938 102.859375 210.101562 C 103.417969 209.988281 103.984375 209.933594 104.558594 209.933594 C 105.128906 209.933594 105.695312 209.988281 106.257812 210.101562 C 106.816406 210.210938 107.363281 210.378906 107.890625 210.597656 C 108.417969 210.816406 108.921875 211.082031 109.398438 211.402344 C 109.871094 211.71875 110.3125 212.078125 110.714844 212.484375 C 111.121094 212.886719 111.480469 213.328125 111.800781 213.804688 C 112.117188 214.28125 112.386719 214.78125 112.605469 215.308594 C 112.824219 215.839844 112.988281 216.382812 113.101562 216.945312 C 113.210938 217.503906 113.269531 218.070312 113.269531 218.644531 C 113.269531 219.214844 113.210938 219.78125 113.101562 220.34375 C 112.988281 220.902344 112.824219 221.449219 112.605469 221.976562 C 112.386719 222.503906 112.117188 223.007812 111.800781 223.484375 C 111.480469 223.957031 111.121094 224.398438 110.714844 224.804688 C 110.3125 225.207031 109.871094 225.570312 109.398438 225.886719 C 108.921875 226.203125 108.417969 226.472656 107.890625 226.691406 C 107.363281 226.910156 106.816406 227.074219 106.257812 227.1875 C 105.695312 227.296875 105.128906 227.355469 104.558594 227.355469 C 103.984375 227.355469 103.417969 227.296875 102.859375 227.1875 C 102.296875 227.074219 101.753906 226.90625 101.226562 226.6875 C 100.695312 226.46875 100.195312 226.203125 99.71875 225.882812 C 99.246094 225.566406 98.804688 225.203125 98.398438 224.800781 C 97.996094 224.394531 97.636719 223.957031 97.316406 223.480469 C 97 223.003906 96.730469 222.503906 96.511719 221.976562 C 96.292969 221.449219 96.128906 220.902344 96.015625 220.34375 C 95.902344 219.78125 95.847656 219.214844 95.847656 218.644531 Z M 139.398438 270.910156 C 138.828125 270.910156 138.261719 270.851562 137.699219 270.742188 C 137.140625 270.628906 136.59375 270.464844 136.066406 270.246094 C 135.539062 270.027344 135.035156 269.757812 134.5625 269.441406 C 134.085938 269.121094 133.644531 268.761719 133.242188 268.355469 C 132.835938 267.953125 132.476562 267.511719 132.15625 267.035156 C 131.839844 266.5625 131.570312 266.058594 131.351562 265.53125 C 131.132812 265.003906 130.96875 264.457031 130.855469 263.898438 C 130.746094 263.335938 130.6875 262.769531 130.6875 262.199219 C 130.6875 261.625 130.746094 261.058594 130.855469 260.5 C 130.96875 259.9375 131.132812 259.390625 131.351562 258.863281 C 131.570312 258.335938 131.839844 257.832031 132.15625 257.359375 C 132.476562 256.882812 132.835938 256.441406 133.242188 256.039062 C 133.644531 255.632812 134.085938 255.273438 134.5625 254.953125 C 135.035156 254.636719 135.539062 254.367188 136.066406 254.148438 C 136.59375 253.929688 137.140625 253.765625 137.699219 253.652344 C 138.261719 253.542969 138.828125 253.488281 139.398438 253.488281 C 139.972656 253.488281 140.539062 253.542969 141.097656 253.652344 C 141.660156 253.765625 142.207031 253.929688 142.734375 254.148438 C 143.261719 254.367188 143.765625 254.636719 144.238281 254.953125 C 144.714844 255.273438 145.15625 255.632812 145.558594 256.039062 C 145.964844 256.441406 146.324219 256.882812 146.644531 257.359375 C 146.960938 257.832031 147.230469 258.335938 147.449219 258.863281 C 147.667969 259.390625 147.832031 259.9375 147.945312 260.5 C 148.054688 261.058594 148.109375 261.625 148.109375 262.199219 C 148.109375 262.769531 148.054688 263.335938 147.941406 263.894531 C 147.832031 264.457031 147.664062 265 147.445312 265.53125 C 147.226562 266.058594 146.957031 266.558594 146.640625 267.035156 C 146.324219 267.511719 145.960938 267.949219 145.558594 268.355469 C 145.152344 268.757812 144.710938 269.121094 144.238281 269.4375 C 143.761719 269.753906 143.261719 270.023438 142.730469 270.242188 C 142.203125 270.460938 141.660156 270.628906 141.097656 270.738281 C 140.539062 270.851562 139.972656 270.90625 139.398438 270.910156 Z M 235.21875 270.910156 C 234.648438 270.910156 234.082031 270.851562 233.519531 270.742188 C 232.957031 270.628906 232.414062 270.464844 231.886719 270.246094 C 231.355469 270.027344 230.855469 269.757812 230.378906 269.441406 C 229.902344 269.121094 229.464844 268.761719 229.058594 268.355469 C 228.65625 267.953125 228.292969 267.511719 227.976562 267.035156 C 227.65625 266.5625 227.390625 266.058594 227.171875 265.53125 C 226.953125 265.003906 226.785156 264.457031 226.675781 263.898438 C 226.5625 263.335938 226.507812 262.769531 226.507812 262.199219 C 226.507812 261.625 226.5625 261.058594 226.675781 260.5 C 226.785156 259.9375 226.953125 259.390625 227.171875 258.863281 C 227.390625 258.335938 227.65625 257.832031 227.976562 257.359375 C 228.292969 256.882812 228.65625 256.441406 229.058594 256.039062 C 229.464844 255.632812 229.902344 255.273438 230.378906 254.953125 C 230.855469 254.636719 231.355469 254.367188 231.886719 254.148438 C 232.414062 253.929688 232.957031 253.765625 233.519531 253.652344 C 234.082031 253.542969 234.648438 253.488281 235.21875 253.488281 C 235.789062 253.488281 236.355469 253.542969 236.917969 253.652344 C 237.480469 253.765625 238.023438 253.929688 238.550781 254.148438 C 239.082031 254.367188 239.582031 254.636719 240.058594 254.953125 C 240.535156 255.273438 240.972656 255.632812 241.378906 256.039062 C 241.78125 256.441406 242.144531 256.882812 242.460938 257.359375 C 242.777344 257.832031 243.046875 258.335938 243.265625 258.863281 C 243.484375 259.390625 243.648438 259.9375 243.761719 260.5 C 243.875 261.058594 243.929688 261.625 243.929688 262.199219 C 243.929688 262.769531 243.871094 263.335938 243.761719 263.894531 C 243.648438 264.457031 243.484375 265 243.261719 265.53125 C 243.042969 266.058594 242.777344 266.558594 242.457031 267.035156 C 242.140625 267.511719 241.78125 267.949219 241.375 268.355469 C 240.972656 268.757812 240.53125 269.121094 240.054688 269.4375 C 239.582031 269.753906 239.078125 270.023438 238.550781 270.242188 C 238.023438 270.460938 237.476562 270.628906 236.917969 270.738281 C 236.355469 270.851562 235.789062 270.90625 235.21875 270.910156 Z M 270.0625 227.355469 C 269.488281 227.355469 268.921875 227.296875 268.363281 227.1875 C 267.800781 227.074219 267.257812 226.910156 266.726562 226.691406 C 266.199219 226.472656 265.699219 226.203125 265.222656 225.886719 C 264.746094 225.570312 264.308594 225.207031 263.902344 224.804688 C 263.496094 224.398438 263.136719 223.957031 262.820312 223.484375 C 262.5 223.007812 262.234375 222.503906 262.015625 221.976562 C 261.796875 221.449219 261.628906 220.902344 261.519531 220.34375 C 261.40625 219.78125 261.351562 219.214844 261.351562 218.644531 C 261.351562 218.070312 261.40625 217.503906 261.519531 216.945312 C 261.628906 216.382812 261.796875 215.839844 262.015625 215.308594 C 262.234375 214.78125 262.5 214.28125 262.820312 213.804688 C 263.136719 213.328125 263.496094 212.886719 263.902344 212.484375 C 264.308594 212.078125 264.746094 211.71875 265.222656 211.402344 C 265.699219 211.082031 266.199219 210.816406 266.726562 210.597656 C 267.257812 210.378906 267.800781 210.210938 268.363281 210.101562 C 268.921875 209.988281 269.488281 209.933594 270.0625 209.933594 C 270.632812 209.933594 271.199219 209.988281 271.761719 210.101562 C 272.320312 210.210938 272.867188 210.378906 273.394531 210.597656 C 273.921875 210.816406 274.425781 211.082031 274.902344 211.402344 C 275.375 211.71875 275.816406 212.078125 276.222656 212.484375 C 276.625 212.886719 276.988281 213.328125 277.304688 213.804688 C 277.621094 214.28125 277.890625 214.78125 278.109375 215.308594 C 278.328125 215.839844 278.492188 216.382812 278.605469 216.945312 C 278.714844 217.503906 278.773438 218.070312 278.773438 218.644531 C 278.773438 219.214844 278.714844 219.78125 278.601562 220.34375 C 278.492188 220.902344 278.324219 221.449219 278.105469 221.976562 C 277.886719 222.503906 277.617188 223.003906 277.300781 223.480469 C 276.984375 223.957031 276.621094 224.394531 276.21875 224.800781 C 275.8125 225.203125 275.375 225.566406 274.898438 225.882812 C 274.421875 226.199219 273.921875 226.46875 273.394531 226.6875 C 272.867188 226.90625 272.320312 227.074219 271.761719 227.183594 C 271.199219 227.296875 270.632812 227.355469 270.0625 227.355469 Z M 270.0625 227.355469 " fill-opacity="1" fill-rule="nonzero"/><g clip-path="url(#537eb160a7)"><g clip-path="url(#05e4100c07)"><path fill="#0b5cf4" d="M 124.816406 248.433594 L 153.703125 248.433594 L 153.703125 278.222656 L 124.816406 278.222656 Z M 124.816406 248.433594 " fill-opacity="1" fill-rule="nonzero"/></g></g><g clip-path="url(#bac2fc3608)"><g clip-path="url(#f74bc819c6)"><path fill="#0b5cf4" d="M 156.765625 124.046875 L 188.546875 124.046875 L 188.546875 153.636719 L 156.765625 153.636719 Z M 156.765625 124.046875 " fill-opacity="1" fill-rule="nonzero"/></g></g><g clip-path="url(#0aa53bd652)"><g clip-path="url(#a1dd08bdea)"><path fill="#0b5cf4" d="M 186.089844 126.5 L 216.761719 126.5 L 216.761719 154.949219 L 186.089844 154.949219 Z M 186.089844 126.5 " fill-opacity="1" fill-rule="nonzero"/></g></g><g clip-path="url(#7b58b46745)"><g clip-path="url(#3520f29dd9)"><path fill="#0b5cf4" d="M 159.042969 198.890625 L 219.753906 198.890625 L 219.753906 237.839844 L 159.042969 237.839844 Z M 159.042969 198.890625 " fill-opacity="1" fill-rule="nonzero"/></g></g><g clip-path="url(#5caae7836c)"><g clip-path="url(#dab6fddfe4)"><path fill="#0b5cf4" d="M 118.191406 151.445312 L 237.171875 151.445312 L 237.171875 266.382812 L 118.191406 266.382812 Z M 118.191406 151.445312 " fill-opacity="1" fill-rule="nonzero"/></g></g><g clip-path="url(#aa4e10ae8b)"><g clip-path="url(#73406686df)"><path fill="#0b5cf4" d="M 218.597656 82.746094 L 337.578125 82.746094 L 337.578125 197.683594 L 218.597656 197.683594 Z M 218.597656 82.746094 " fill-opacity="1" fill-rule="nonzero"/></g></g></svg>